# xmcd CD database file
#
# Track frame offsets:
#	150
#	20119
#	35433
#	48989
#	71709
#	96857
#	113892
#	138565
#	161746
#
# Disc length: 2580 seconds
#
# Revision: 0
# Processed by: cddbd v1.4PL0 Copyright (c) Steve Scherf et al.
# Submitted via: CDex 1.51
#
DISCID=7f0a1209
DTITLE=Peter Green - Little Dreamer
DYEAR=1980
DGENRE=Blues
TTITLE0=Loser Two Times
TTITLE1=Momma Don'tcha Cry
TTITLE2=Born Under A Bad Sign
TTITLE3=I Could Not Ask For More
TTITLE4=Baby When The Sun Goes Down
TTITLE5=Walkin' The Road
TTITLE6=One Woman Love
TTITLE7=Cryin' Won't Bring You Back
TTITLE8=Little Dreamer
EXTD=YEAR: 1980
EXTT0=
EXTT1=
EXTT2=
EXTT3=
EXTT4=
EXTT5=
EXTT6=
EXTT7=
EXTT8=
PLAYORDER=
